<svg xmlns="http://www.w3.org/2000/svg" xmlns:xlink="http://www.w3.org/1999/xlink" width="350" zoomAndPan="magnify" viewBox="0 0 262.5 84.749999" height="113" preserveAspectRatio="xMidYMid meet" version="1.0"><defs><g/><clipPath id="0ef2141c85"><path d="M 27 27 L 52 27 L 52 61 L 27 61 Z M 27 27 " clip-rule="nonzero"/></clipPath><clipPath id="3940b23d69"><path d="M 43.632812 25.648438 L 54.164062 31.847656 L 36.054688 62.613281 L 25.523438 56.414062 Z M 43.632812 25.648438 " clip-rule="nonzero"/></clipPath><clipPath id="00ef2719a4"><path d="M 48.898438 28.746094 C 50.292969 29.570312 51.308594 30.910156 51.714844 32.480469 C 52.121094 34.046875 51.886719 35.714844 51.0625 37.109375 L 39.160156 57.332031 C 38.335938 58.730469 36.996094 59.742188 35.425781 60.148438 C 33.859375 60.554688 32.191406 60.320312 30.796875 59.5 C 29.398438 58.675781 28.386719 57.335938 27.980469 55.765625 C 27.574219 54.199219 27.808594 52.53125 28.628906 51.136719 L 40.535156 30.914062 C 41.355469 29.515625 42.699219 28.503906 44.269531 28.097656 C 45.835938 27.691406 47.5 27.925781 48.898438 28.746094 Z M 48.898438 28.746094 " clip-rule="nonzero"/></clipPath><clipPath id="108f998a4f"><path d="M 0.417969 0.519531 L 25 0.519531 L 25 33.78125 L 0.417969 33.78125 Z M 0.417969 0.519531 " clip-rule="nonzero"/></clipPath><clipPath id="f2f49a1ae3"><path d="M 16.632812 -1.351562 L 27.164062 4.847656 L 9.054688 35.613281 L -1.476562 29.414062 Z M 16.632812 -1.351562 " clip-rule="nonzero"/></clipPath><clipPath id="6694af6529"><path d="M 21.898438 1.746094 C 23.292969 2.570312 24.308594 3.910156 24.714844 5.480469 C 25.121094 7.046875 24.886719 8.714844 24.0625 10.109375 L 12.160156 30.332031 C 11.335938 31.730469 9.996094 32.742188 8.425781 33.148438 C 6.859375 33.554688 5.191406 33.320312 3.796875 32.5 C 2.398438 31.675781 1.386719 30.335938 0.980469 28.765625 C 0.574219 27.199219 0.808594 25.53125 1.628906 24.136719 L 13.535156 3.914062 C 14.355469 2.515625 15.699219 1.503906 17.269531 1.097656 C 18.835938 0.691406 20.5 0.925781 21.898438 1.746094 Z M 21.898438 1.746094 " clip-rule="nonzero"/></clipPath><clipPath id="12cbeb1aee"><rect x="0" width="25" y="0" height="34"/></clipPath><clipPath id="980bcba37f"><path d="M 15.417969 27.871094 L 28.003906 27.871094 L 28.003906 40.457031 L 15.417969 40.457031 Z M 15.417969 27.871094 " clip-rule="nonzero"/></clipPath><clipPath id="8ed2e65c85"><path d="M 21.710938 27.871094 C 18.234375 27.871094 15.417969 30.6875 15.417969 34.164062 C 15.417969 37.640625 18.234375 40.457031 21.710938 40.457031 C 25.1875 40.457031 28.003906 37.640625 28.003906 34.164062 C 28.003906 30.6875 25.1875 27.871094 21.710938 27.871094 Z M 21.710938 27.871094 " clip-rule="nonzero"/></clipPath><clipPath id="a448ac3e6b"><path d="M 0.417969 0.871094 L 13.003906 0.871094 L 13.003906 13.457031 L 0.417969 13.457031 Z M 0.417969 0.871094 " clip-rule="nonzero"/></clipPath><clipPath id="dc4434d21a"><path d="M 6.710938 0.871094 C 3.234375 0.871094 0.417969 3.6875 0.417969 7.164062 C 0.417969 10.640625 3.234375 13.457031 6.710938 13.457031 C 10.1875 13.457031 13.003906 10.640625 13.003906 7.164062 C 13.003906 3.6875 10.1875 0.871094 6.710938 0.871094 Z M 6.710938 0.871094 " clip-rule="nonzero"/></clipPath><clipPath id="b13d01c0d8"><rect x="0" width="14" y="0" height="14"/></clipPath><clipPath id="57d40e674c"><path d="M 166 0.449219 L 170 0.449219 L 170 30 L 166 30 Z M 166 0.449219 " clip-rule="nonzero"/></clipPath><clipPath id="e7d0e055bc"><path d="M 171 2 L 186.738281 2 L 186.738281 30 L 171 30 Z M 171 2 " clip-rule="nonzero"/></clipPath><clipPath id="d7d59a0638"><rect x="0" width="187" y="0" height="38"/></clipPath></defs><g clip-path="url(#0ef2141c85)"><g clip-path="url(#3940b23d69)"><g clip-path="url(#00ef2719a4)"><g transform="matrix(1, 0, 0, 1, 27, 27)"><g clip-path="url(#12cbeb1aee)"><g clip-path="url(#108f998a4f)"><g clip-path="url(#f2f49a1ae3)"><g clip-path="url(#6694af6529)"><path fill="#000000" d="M 16.632812 -1.351562 L 27.164062 4.847656 L 9.054688 35.613281 L -1.476562 29.414062 Z M 16.632812 -1.351562 " fill-opacity="1" fill-rule="nonzero"/></g></g></g></g></g></g></g></g><g clip-path="url(#980bcba37f)"><g clip-path="url(#8ed2e65c85)"><g transform="matrix(1, 0, 0, 1, 15, 27)"><g clip-path="url(#b13d01c0d8)"><g clip-path="url(#a448ac3e6b)"><g clip-path="url(#dc4434d21a)"><path fill="#000000" d="M 0.417969 0.871094 L 13.003906 0.871094 L 13.003906 13.457031 L 0.417969 13.457031 Z M 0.417969 0.871094 " fill-opacity="1" fill-rule="nonzero"/></g></g></g></g></g></g><g transform="matrix(1, 0, 0, 1, 57, 23)"><g clip-path="url(#d7d59a0638)"><g fill="#000000" fill-opacity="1"><g transform="translate(0.878996, 29.707361)"><g><path d="M 15.296875 0 L 11.453125 0 C 10.660156 0 9.875 -0.0976562 9.09375 -0.296875 C 8.3125 -0.503906 7.601562 -0.878906 6.96875 -1.421875 C 6.332031 -1.972656 5.820312 -2.753906 5.4375 -3.765625 C 5.0625 -4.785156 4.875 -6.109375 4.875 -7.734375 L 4.875 -17.796875 L 0.21875 -17.796875 L 0.21875 -20.890625 L 4.875 -20.890625 L 4.875 -27.09375 L 8.390625 -27.109375 L 8.390625 -20.890625 L 15.296875 -20.890625 L 15.296875 -17.796875 L 8.390625 -17.796875 L 8.390625 -7.578125 C 8.390625 -6.609375 8.492188 -5.816406 8.703125 -5.203125 C 8.921875 -4.597656 9.207031 -4.132812 9.5625 -3.8125 C 9.925781 -3.5 10.332031 -3.28125 10.78125 -3.15625 C 11.226562 -3.039062 11.679688 -2.984375 12.140625 -2.984375 L 15.296875 -2.984375 Z M 15.296875 0 "/></g></g></g><g fill="#000000" fill-opacity="1"><g transform="translate(14.905238, 29.707361)"><g><path d="M 22.5625 -10.953125 C 22.5625 -10.773438 22.554688 -10.585938 22.546875 -10.390625 C 22.546875 -10.191406 22.53125 -9.898438 22.5 -9.515625 L 5.1875 -9.515625 C 5.332031 -8.128906 5.738281 -6.921875 6.40625 -5.890625 C 7.070312 -4.867188 7.910156 -4.082031 8.921875 -3.53125 C 9.929688 -2.976562 11.007812 -2.703125 12.15625 -2.703125 C 13.5625 -2.703125 14.765625 -3.003906 15.765625 -3.609375 C 16.765625 -4.222656 17.492188 -5.113281 17.953125 -6.28125 L 21.90625 -6.28125 C 21.601562 -5.332031 21.15625 -4.441406 20.5625 -3.609375 C 19.96875 -2.773438 19.25 -2.046875 18.40625 -1.421875 C 17.570312 -0.796875 16.632812 -0.304688 15.59375 0.046875 C 14.550781 0.398438 13.4375 0.578125 12.25 0.578125 C 10.726562 0.578125 9.320312 0.296875 8.03125 -0.265625 C 6.75 -0.835938 5.625 -1.628906 4.65625 -2.640625 C 3.695312 -3.648438 2.953125 -4.820312 2.421875 -6.15625 C 1.890625 -7.488281 1.625 -8.914062 1.625 -10.4375 C 1.625 -11.96875 1.890625 -13.398438 2.421875 -14.734375 C 2.953125 -16.066406 3.695312 -17.238281 4.65625 -18.25 C 5.625 -19.257812 6.75 -20.050781 8.03125 -20.625 C 9.320312 -21.195312 10.726562 -21.484375 12.25 -21.484375 C 13.75 -21.484375 15.128906 -21.203125 16.390625 -20.640625 C 17.648438 -20.078125 18.738281 -19.304688 19.65625 -18.328125 C 20.582031 -17.347656 21.296875 -16.222656 21.796875 -14.953125 C 22.304688 -13.691406 22.5625 -12.359375 22.5625 -10.953125 Z M 5.34375 -12.640625 L 18.96875 -12.640625 C 18.90625 -13.367188 18.6875 -14.066406 18.3125 -14.734375 C 17.9375 -15.410156 17.441406 -16.003906 16.828125 -16.515625 C 16.210938 -17.023438 15.503906 -17.425781 14.703125 -17.71875 C 13.910156 -18.007812 13.070312 -18.15625 12.1875 -18.15625 C 11.144531 -18.15625 10.148438 -17.941406 9.203125 -17.515625 C 8.265625 -17.097656 7.453125 -16.476562 6.765625 -15.65625 C 6.085938 -14.84375 5.613281 -13.835938 5.34375 -12.640625 Z M 5.34375 -12.640625 "/></g></g></g><g fill="#000000" fill-opacity="1"><g transform="translate(36.321334, 29.707361)"><g><path d="M 11.71875 0.59375 C 10.28125 0.59375 8.945312 0.3125 7.71875 -0.25 C 6.5 -0.820312 5.429688 -1.613281 4.515625 -2.625 C 3.609375 -3.632812 2.898438 -4.804688 2.390625 -6.140625 C 1.878906 -7.484375 1.625 -8.914062 1.625 -10.4375 C 1.625 -11.96875 1.878906 -13.398438 2.390625 -14.734375 C 2.898438 -16.066406 3.609375 -17.238281 4.515625 -18.25 C 5.429688 -19.257812 6.5 -20.046875 7.71875 -20.609375 C 8.945312 -21.171875 10.269531 -21.453125 11.6875 -21.453125 C 12.945312 -21.453125 14.113281 -21.25 15.1875 -20.84375 C 16.269531 -20.4375 17.222656 -19.851562 18.046875 -19.09375 C 18.878906 -18.332031 19.523438 -17.4375 19.984375 -16.40625 L 19.984375 -20.890625 L 23.359375 -20.890625 L 23.359375 0 L 19.984375 0 L 19.984375 -4.4375 C 19.523438 -3.414062 18.878906 -2.523438 18.046875 -1.765625 C 17.222656 -1.015625 16.269531 -0.429688 15.1875 -0.015625 C 14.113281 0.390625 12.957031 0.59375 11.71875 0.59375 Z M 12.484375 -2.703125 C 13.515625 -2.703125 14.472656 -2.894531 15.359375 -3.28125 C 16.253906 -3.675781 17.035156 -4.222656 17.703125 -4.921875 C 18.378906 -5.628906 18.90625 -6.453125 19.28125 -7.390625 C 19.664062 -8.335938 19.859375 -9.351562 19.859375 -10.4375 C 19.859375 -11.519531 19.664062 -12.523438 19.28125 -13.453125 C 18.90625 -14.390625 18.378906 -15.207031 17.703125 -15.90625 C 17.023438 -16.613281 16.242188 -17.164062 15.359375 -17.5625 C 14.472656 -17.957031 13.523438 -18.15625 12.515625 -18.15625 C 11.484375 -18.15625 10.523438 -17.96875 9.640625 -17.59375 C 8.753906 -17.21875 7.96875 -16.679688 7.28125 -15.984375 C 6.601562 -15.296875 6.070312 -14.484375 5.6875 -13.546875 C 5.3125 -12.609375 5.125 -11.570312 5.125 -10.4375 C 5.125 -9.28125 5.316406 -8.226562 5.703125 -7.28125 C 6.085938 -6.332031 6.617188 -5.515625 7.296875 -4.828125 C 7.972656 -4.148438 8.757812 -3.625 9.65625 -3.25 C 10.550781 -2.882812 11.492188 -2.703125 12.484375 -2.703125 Z M 12.484375 -2.703125 "/></g></g></g><g fill="#000000" fill-opacity="1"><g transform="translate(60.623774, 29.707361)"><g><path d="M 28.890625 -21.484375 C 31.484375 -21.484375 33.453125 -20.625 34.796875 -18.90625 C 36.140625 -17.195312 36.8125 -14.671875 36.8125 -11.328125 L 36.8125 0 L 33.3125 0 L 33.3125 -11.265625 C 33.3125 -13.660156 32.832031 -15.410156 31.875 -16.515625 C 30.925781 -17.628906 29.613281 -18.1875 27.9375 -18.1875 C 27.144531 -18.1875 26.378906 -18.007812 25.640625 -17.65625 C 24.910156 -17.3125 24.257812 -16.816406 23.6875 -16.171875 C 23.113281 -15.535156 22.660156 -14.773438 22.328125 -13.890625 C 21.992188 -13.015625 21.828125 -12.039062 21.828125 -10.96875 L 21.828125 0 L 18.34375 0 L 18.34375 -11.265625 C 18.34375 -13.660156 17.863281 -15.410156 16.90625 -16.515625 C 15.957031 -17.628906 14.648438 -18.1875 12.984375 -18.1875 C 12.191406 -18.1875 11.425781 -18.007812 10.6875 -17.65625 C 9.945312 -17.3125 9.289062 -16.816406 8.71875 -16.171875 C 8.144531 -15.535156 7.691406 -14.773438 7.359375 -13.890625 C 7.023438 -13.015625 6.859375 -12.039062 6.859375 -10.96875 L 6.859375 0 L 3.375 0 L 3.375 -20.890625 L 6.703125 -20.890625 L 6.734375 -16.859375 C 7.085938 -17.722656 7.613281 -18.503906 8.3125 -19.203125 C 9.019531 -19.898438 9.851562 -20.453125 10.8125 -20.859375 C 11.769531 -21.273438 12.804688 -21.484375 13.921875 -21.484375 C 17.691406 -21.484375 20.125 -19.691406 21.21875 -16.109375 C 22.019531 -17.898438 23.097656 -19.242188 24.453125 -20.140625 C 25.804688 -21.035156 27.285156 -21.484375 28.890625 -21.484375 Z M 28.890625 -21.484375 "/></g></g></g><g fill="#000000" fill-opacity="1"><g transform="translate(98.129696, 29.707361)"><g><path d="M 12.078125 0 L 8.75 0 L 0.265625 -20.890625 L 4.015625 -20.890625 L 9.90625 -6.140625 L 10.421875 -4.28125 L 10.921875 -6.140625 L 16.8125 -20.890625 L 20.578125 -20.890625 Z M 12.078125 0 "/></g></g></g><g fill="#000000" fill-opacity="1"><g transform="translate(116.536628, 29.707361)"><g><path d="M 11.71875 0.59375 C 10.28125 0.59375 8.945312 0.3125 7.71875 -0.25 C 6.5 -0.820312 5.429688 -1.613281 4.515625 -2.625 C 3.609375 -3.632812 2.898438 -4.804688 2.390625 -6.140625 C 1.878906 -7.484375 1.625 -8.914062 1.625 -10.4375 C 1.625 -11.96875 1.878906 -13.398438 2.390625 -14.734375 C 2.898438 -16.066406 3.609375 -17.238281 4.515625 -18.25 C 5.429688 -19.257812 6.5 -20.046875 7.71875 -20.609375 C 8.945312 -21.171875 10.269531 -21.453125 11.6875 -21.453125 C 12.945312 -21.453125 14.113281 -21.25 15.1875 -20.84375 C 16.269531 -20.4375 17.222656 -19.851562 18.046875 -19.09375 C 18.878906 -18.332031 19.523438 -17.4375 19.984375 -16.40625 L 19.984375 -20.890625 L 23.359375 -20.890625 L 23.359375 0 L 19.984375 0 L 19.984375 -4.4375 C 19.523438 -3.414062 18.878906 -2.523438 18.046875 -1.765625 C 17.222656 -1.015625 16.269531 -0.429688 15.1875 -0.015625 C 14.113281 0.390625 12.957031 0.59375 11.71875 0.59375 Z M 12.484375 -2.703125 C 13.515625 -2.703125 14.472656 -2.894531 15.359375 -3.28125 C 16.253906 -3.675781 17.035156 -4.222656 17.703125 -4.921875 C 18.378906 -5.628906 18.90625 -6.453125 19.28125 -7.390625 C 19.664062 -8.335938 19.859375 -9.351562 19.859375 -10.4375 C 19.859375 -11.519531 19.664062 -12.523438 19.28125 -13.453125 C 18.90625 -14.390625 18.378906 -15.207031 17.703125 -15.90625 C 17.023438 -16.613281 16.242188 -17.164062 15.359375 -17.5625 C 14.472656 -17.957031 13.523438 -18.15625 12.515625 -18.15625 C 11.484375 -18.15625 10.523438 -17.96875 9.640625 -17.59375 C 8.753906 -17.21875 7.96875 -16.679688 7.28125 -15.984375 C 6.601562 -15.296875 6.070312 -14.484375 5.6875 -13.546875 C 5.3125 -12.609375 5.125 -11.570312 5.125 -10.4375 C 5.125 -9.28125 5.316406 -8.226562 5.703125 -7.28125 C 6.085938 -6.332031 6.617188 -5.515625 7.296875 -4.828125 C 7.972656 -4.148438 8.757812 -3.625 9.65625 -3.25 C 10.550781 -2.882812 11.492188 -2.703125 12.484375 -2.703125 Z M 12.484375 -2.703125 "/></g></g></g><g fill="#000000" fill-opacity="1"><g transform="translate(140.839067, 29.707361)"><g><path d="M 12.34375 0.59375 C 10.957031 0.59375 9.679688 0.394531 8.515625 0 C 7.359375 -0.394531 6.351562 -1.007812 5.5 -1.84375 C 4.644531 -2.675781 3.984375 -3.742188 3.515625 -5.046875 C 3.046875 -6.347656 2.8125 -7.910156 2.8125 -9.734375 L 2.8125 -20.890625 L 6.3125 -20.890625 L 6.3125 -9.828125 C 6.3125 -7.484375 6.832031 -5.710938 7.875 -4.515625 C 8.914062 -3.316406 10.394531 -2.71875 12.3125 -2.71875 C 14.226562 -2.71875 15.707031 -3.316406 16.75 -4.515625 C 17.789062 -5.710938 18.3125 -7.484375 18.3125 -9.828125 L 18.3125 -20.890625 L 21.828125 -20.890625 L 21.828125 -9.734375 C 21.828125 -7.910156 21.59375 -6.347656 21.125 -5.046875 C 20.65625 -3.742188 19.992188 -2.675781 19.140625 -1.84375 C 18.285156 -1.007812 17.28125 -0.394531 16.125 0 C 14.96875 0.394531 13.707031 0.59375 12.34375 0.59375 Z M 12.34375 0.59375 "/></g></g></g><g clip-path="url(#57d40e674c)"><g fill="#000000" fill-opacity="1"><g transform="translate(163.033044, 29.707361)"><g><path d="M 6.90625 0 L 3.375 0 L 3.375 -28.875 L 6.90625 -28.875 Z M 6.90625 0 "/></g></g></g></g><g clip-path="url(#e7d0e055bc)"><g fill="#000000" fill-opacity="1"><g transform="translate(170.87719, 29.707361)"><g><path d="M 15.296875 0 L 11.453125 0 C 10.660156 0 9.875 -0.0976562 9.09375 -0.296875 C 8.3125 -0.503906 7.601562 -0.878906 6.96875 -1.421875 C 6.332031 -1.972656 5.820312 -2.753906 5.4375 -3.765625 C 5.0625 -4.785156 4.875 -6.109375 4.875 -7.734375 L 4.875 -17.796875 L 0.21875 -17.796875 L 0.21875 -20.890625 L 4.875 -20.890625 L 4.875 -27.09375 L 8.390625 -27.109375 L 8.390625 -20.890625 L 15.296875 -20.890625 L 15.296875 -17.796875 L 8.390625 -17.796875 L 8.390625 -7.578125 C 8.390625 -6.609375 8.492188 -5.816406 8.703125 -5.203125 C 8.921875 -4.597656 9.207031 -4.132812 9.5625 -3.8125 C 9.925781 -3.5 10.332031 -3.28125 10.78125 -3.15625 C 11.226562 -3.039062 11.679688 -2.984375 12.140625 -2.984375 L 15.296875 -2.984375 Z M 15.296875 0 "/></g></g></g></g></g></g></svg>